<svg width="456" height="456" xmlns="http://www.w3.org/2000/svg">

 <g>
  <title>Layer 1</title>
  <g transform="rotate(-0.101629 236 219.5)" stroke="null">
   <path stroke="null" fill="#B28D5B" d="m312.95027,286.24408c0,8.4253 -6.56257,15.25586 -14.65732,15.25586l-131.91486,0c-8.09507,-0.00034 -14.65732,-6.83056 -14.65732,-15.25586l0,-106.91064l161.22949,0l0,106.91064z"/>
   <path stroke="null" fill="#99774F" d="m151.72077,179.33344l25.65014,0l0,122.16651l-10.99282,0c-8.09507,-0.00034 -14.65732,-6.83708 -14.65732,-15.27094l0,-106.89556zm161.22949,53.44795l-54.96444,0c-8.09474,0 -14.65732,6.83056 -14.65732,15.25586l0,0.03015c0,8.4253 6.56225,15.25586 14.65732,15.25586l54.96477,0c4.0477,0 7.32866,-3.41494 7.32866,-7.62793l0,-15.28602c-0.00033,-4.21299 -3.28129,-7.62793 -7.32899,-7.62793z"/>
   <path stroke="null" fill="#FFE77C" d="m265.31415,248.05199c0,3.1624 -2.46088,5.72652 -5.49658,5.72652s-5.49658,-2.56377 -5.49658,-5.72652c0,-3.1624 2.46088,-5.72652 5.49658,-5.72652s5.49658,2.56377 5.49658,5.72652z"/>
   <path stroke="null" fill="#CEA05D" d="m301.95745,198.42195l-131.91519,0c-10.11843,0 -18.32148,-8.53803 -18.32148,-19.07l0,-0.03769c0,-10.53197 8.20305,-19.06966 18.32148,-19.06966l131.91519,0c6.07139,0 10.99282,5.12241 10.99282,11.44173l0,15.29356c0,6.31932 -4.92144,11.44207 -10.99282,11.44207z"/>
   <path stroke="null" fill="#84D88B" d="m252.70456,143.20553l12.6096,36.12791l-84.27908,0l59.76605,-40.29088c4.33017,-2.91911 10.14114,-0.8868 11.90343,4.16296z"/>
   <path stroke="null" fill="#91F18B" d="m282.35894,143.03454l12.66919,36.2989l-84.67841,0l60.04884,-40.48174c4.35058,-2.93316 10.18921,-0.89126 11.96039,4.18284z"/>
   <path stroke="null" fill="#99774F" d="m312.95027,176.46984l0,5.72652l-139.24352,0c-1.51768,0 -2.74829,-1.28189 -2.74829,-2.86326s1.23061,-2.86326 2.74829,-2.86326l139.24352,0l0,0z"/>
  </g>
 </g>
</svg>